<?xml version="1.0" standalone="no"?>
<!DOCTYPE svg PUBLIC "-//W3C//DTD SVG 20010904//EN"
 "http://www.w3.org/TR/2001/REC-SVG-20010904/DTD/svg10.dtd">
<svg version="1.0" xmlns="http://www.w3.org/2000/svg"
 width="500.000000pt" height="500.000000pt" viewBox="0 0 500.000000 500.000000"
 preserveAspectRatio="xMidYMid meet">
<metadata>
Created by potrace 1.14, written by Peter Selinger 2001-2017
</metadata>
<g transform="translate(0.000000,500.000000) scale(0.100000,-0.100000)"
fill="#000000" stroke="none">
<path d="M2170 4799 c-30 -13 -1608 -1736 -1633 -1785 -10 -19 -15 -44 -12
-54 3 -10 42 -53 86 -94 l80 -76 -40 -16 c-82 -33 -131 -131 -131 -262 0 -93
23 -166 195 -612 223 -578 449 -1110 578 -1365 58 -113 84 -152 137 -206 91
-92 131 -99 245 -45 67 32 474 203 710 299 61 24 175 72 255 105 80 33 262
108 405 167 143 59 312 129 375 155 63 27 176 75 250 106 244 103 284 120 425
183 340 151 356 163 395 289 41 133 34 168 -122 542 -84 202 -89 216 -71 228
10 7 46 31 81 53 39 26 62 47 62 59 0 74 -188 499 -316 714 -11 18 -15 18 -94
-13 -45 -17 -85 -31 -89 -31 -5 0 -75 152 -156 338 -161 367 -171 384 -277
438 -89 45 -106 43 -294 -31 -93 -37 -176 -70 -184 -73 -8 -3 4 15 27 39 81
84 70 141 -50 256 -74 70 -189 175 -639 581 -76 67 -144 122 -155 121 -10 0
-29 -5 -43 -10z m166 -296 c258 -230 534 -485 554 -510 13 -17 20 -41 20 -68
0 -39 -6 -48 -95 -142 -104 -110 -73 -92 -370 -218 -98 -42 -247 -107 -335
-147 -25 -12 -110 -49 -190 -83 -338 -146 -619 -269 -833 -364 -125 -55 -233
-101 -240 -101 -19 0 -127 110 -127 129 0 9 8 30 18 46 29 47 1411 1553 1430
1558 39 11 54 2 168 -100z m952 -1985 c72 -48 95 -88 100 -178 4 -71 2 -83
-21 -122 -99 -169 -384 -75 -386 127 -1 47 42 128 90 169 43 37 46 38 110 34
51 -3 75 -10 107 -30z"/>
</g>
</svg>
